<?xml version="1.0" encoding="UTF-8" standalone="no"?>
<svg width="742px" height="255px" viewBox="0 0 742 255" version="1.1" xmlns="http://www.w3.org/2000/svg" xmlns:xlink="http://www.w3.org/1999/xlink">
    <!-- Generator: Sketch 50.2 (55047) - http://www.bohemiancoding.com/sketch -->
    <title>Group</title>
    <desc>Created with Sketch.</desc>
    <defs>
        <linearGradient x1="-1.11022302e-14%" y1="50%" x2="100%" y2="50%" id="linearGradient-1">
            <stop stop-color="#F29100" offset="0%"></stop>
            <stop stop-color="#E50053" offset="100%"></stop>
        </linearGradient>
    </defs>
    <g id="Symbols" stroke="none" stroke-width="1" fill="none" fill-rule="evenodd">
        <g id="logo/positive/total/landscape">
            <g id="Group">
                <g id="logo/positive/vignet" fill="url(#linearGradient-1)">
                    <path d="M263.910958,0.847 C262.584681,0.863 261.275447,1.317 260.204802,2.181 L134.999499,103.132 L9.79519777,2.181 C7.99474999,0.727 5.51462316,0.437 3.42345721,1.432 C1.33128878,2.429 0,4.535 0,6.847 L0,248.847 C0,252.16 2.69265185,254.847 6.01485893,254.847 C9.33606353,254.847 12.0297179,252.16 12.0297179,248.847 L12.0297179,74.103 L42.7115133,98.841 L42.7115133,248.847 C42.7115133,252.16 45.4041651,254.847 48.7263722,254.847 C52.0475768,254.847 54.7412311,252.16 54.7412311,248.847 L54.7412311,164.277 L131.21916,225.939 C132.320882,226.828 133.66019,227.273 134.999499,227.273 C136.313745,227.273 137.628995,226.846 138.720691,225.988 L215.258769,165.884 L215.258769,248.847 C215.258769,252.16 217.952423,254.847 221.273628,254.847 C224.595835,254.847 227.288487,252.16 227.288487,248.847 L227.288487,98.842 L257.970282,74.103 L257.970282,248.847 C257.970282,252.16 260.663936,254.847 263.986144,254.847 C267.307348,254.847 270,252.16 270,248.847 L270,6.847 C270,4.535 268.669714,2.429 266.577545,1.432 C265.777569,1.051 264.921454,0.858 264.067344,0.847 L263.910958,0.847 Z M138.78084,115.513 L257.970282,19.411 L257.970282,58.673 L134.999499,157.824 L12.0297179,58.673 L12.0297179,19.411 L131.21916,115.513 C132.320882,116.402 133.66019,116.847 134.999499,116.847 C136.338807,116.847 137.678116,116.402 138.78084,115.513 Z M138.78084,170.205 L215.258769,108.542 L215.258769,150.612 L135.049623,213.599 L54.7412311,148.846 L54.7412311,108.542 L131.21916,170.205 C132.321884,171.094 133.66019,171.539 134.999499,171.539 C136.33981,171.539 137.678116,171.094 138.78084,170.205 Z" id="Clip-2"></path>
                </g>
                <g id="logo/positive/name" transform="translate(337.000000, 55.000000)" fill="#161412">
                    <path d="M1.19318562,63.8538959 C0.39722699,63.0589517 0,62.077316 0,60.9135056 L0,6.06536431 C0,4.41224164 0.580794008,2.98646097 1.74388667,1.79253903 C2.90697934,0.5986171 4.31532957,0.000903345725 5.96743274,0.000903345725 L8.99779318,0.000903345725 C10.2210718,0.000903345725 11.3405296,0.368263941 12.3501482,1.10298513 C13.3597668,1.8392119 14.1075767,2.75761338 14.5995965,3.85969517 L35.4419763,55.8607918 L56.2843561,3.85969517 C56.7733666,2.75761338 57.5241858,1.8392119 58.5338044,1.10298513 C59.543423,0.368263941 60.6598716,0.000903345725 61.8846548,0.000903345725 L64.9150153,0.000903345725 C66.5686231,0.000903345725 67.9754687,0.5986171 69.1385613,1.79253903 C70.3001494,2.98646097 70.882448,4.41224164 70.882448,6.06536431 L70.882448,60.9135056 C70.882448,62.077316 70.4837164,63.0589517 69.6892624,63.8538959 C68.8933038,64.6488401 67.9137781,65.0478178 66.7506855,65.0478178 C65.5875928,65.0478178 64.5945253,64.6488401 63.7669691,63.8538959 C62.9409175,63.0589517 62.5271394,62.077316 62.5271394,60.9135056 L62.5271394,8.7302342 L41.3176256,61.189026 C40.8271104,62.3528364 40.0461983,63.2877993 38.9763937,63.9924089 C37.9050846,64.695513 36.7269455,65.0478178 35.4419763,65.0478178 C34.1555026,65.0478178 32.9773634,64.695513 31.9075589,63.9924089 C30.8347451,63.2877993 30.0553376,62.3528364 29.5648225,61.189026 L8.35530862,8.7302342 L8.35530862,60.9135056 C8.35530862,62.077316 7.94153051,63.0589517 7.11698357,63.8538959 C6.28942734,64.6488401 5.29485522,65.0478178 4.13176256,65.0478178 C2.96866989,65.0478178 1.98914425,64.6488401 1.19318562,63.8538959 Z M84.3792882,63.8538959 C83.5833296,63.0589517 83.1861026,62.077316 83.1861026,60.9135056 L83.1861026,4.22705576 C83.1861026,3.06475093 83.5833296,2.06805948 84.3792882,1.24149814 C85.1737422,0.413431227 86.1532679,0.000903345725 87.3178652,0.000903345725 C88.4794532,0.000903345725 89.47553,0.413431227 90.3015816,1.24149814 C91.1276331,2.06805948 91.5414112,3.06475093 91.5414112,4.22705576 L91.5414112,60.9135056 C91.5414112,62.077316 91.1276331,63.0589517 90.3015816,63.8538959 C89.47553,64.6488401 88.4794532,65.0478178 87.3178652,65.0478178 C86.1532679,65.0478178 85.1737422,64.6488401 84.3792882,63.8538959 Z M105.542008,62.8894238 C104.409008,61.7557249 103.84326,60.394684 103.84326,58.8002788 L103.84326,4.22765799 C103.84326,3.06535316 104.240487,2.06866171 105.037951,1.24210037 C105.832405,0.414033457 106.81193,0 107.975023,0 C109.138116,0 110.132688,0.414033457 110.960244,1.24210037 C111.784791,2.06866171 112.198569,3.06535316 112.198569,4.22765799 L112.198569,56.2287546 L142.222309,56.2287546 C143.385402,56.2287546 144.381478,56.6427881 145.20753,57.4678439 C146.033582,58.2944052 146.44736,59.2910967 146.44736,60.4549071 C146.44736,61.6187175 146.033582,62.6003532 145.20753,63.3937918 C144.381478,64.1902416 143.385402,64.5892193 142.222309,64.5892193 L109.628631,64.5892193 C108.035209,64.5892193 106.673503,64.0231227 105.542008,62.8894238 Z M152.918548,62.8894238 C151.785549,61.7557249 151.219801,60.394684 151.219801,58.8002788 L151.219801,4.22765799 C151.219801,3.06535316 151.617028,2.06866171 152.414491,1.24210037 C153.208945,0.414033457 154.188471,0 155.351564,0 C156.514656,0 157.510733,0.414033457 158.336785,1.24210037 C159.161332,2.06866171 159.57511,3.06535316 159.57511,4.22765799 L159.57511,56.2287546 L189.59885,56.2287546 C190.761942,56.2287546 191.758019,56.6427881 192.584071,57.4678439 C193.410122,58.2944052 193.8239,59.2910967 193.8239,60.4549071 C193.8239,61.6187175 193.410122,62.6003532 192.584071,63.3937918 C191.758019,64.1902416 190.761942,64.5892193 189.59885,64.5892193 L157.005172,64.5892193 C155.41175,64.5892193 154.050043,64.0231227 152.918548,62.8894238 Z M231.742978,63.8538959 C230.94702,63.0589517 230.548288,62.077316 230.548288,60.9135056 L230.548288,4.22705576 C230.548288,3.06475093 230.94702,2.06805948 231.742978,1.24149814 C232.537432,0.413431227 233.518463,0.000903345725 234.681555,0.000903345725 C235.844648,0.000903345725 236.83922,0.413431227 237.665272,1.24149814 C238.491323,2.06805948 238.905101,3.06475093 238.905101,4.22705576 L238.905101,28.6655688 L273.703088,28.6655688 L273.703088,4.22705576 C273.703088,3.06475093 274.100315,2.06805948 274.897779,1.24149814 C275.692233,0.413431227 276.670254,0.000903345725 277.834851,0.000903345725 C278.996439,0.000903345725 279.992516,0.413431227 280.818567,1.24149814 C281.644619,2.06805948 282.058397,3.06475093 282.058397,4.22705576 L282.058397,60.9135056 C282.058397,62.077316 281.644619,63.0589517 280.818567,63.8538959 C279.992516,64.6488401 278.996439,65.0478178 277.834851,65.0478178 C276.670254,65.0478178 275.692233,64.6488401 274.897779,63.8538959 C274.100315,63.0589517 273.703088,62.077316 273.703088,60.9135056 L273.703088,36.4749926 L238.905101,36.4749926 L238.905101,60.9135056 C238.905101,62.077316 238.491323,63.0589517 237.665272,63.8538959 C236.83922,64.6488401 235.844648,65.0478178 234.681555,65.0478178 C233.518463,65.0478178 232.537432,64.6488401 231.742978,63.8538959 Z M295.555237,63.8538959 C294.759279,63.0589517 294.360547,62.077316 294.360547,60.9135056 L294.360547,4.22705576 C294.360547,3.06475093 294.759279,2.06805948 295.555237,1.24149814 C296.349691,0.413431227 297.330722,0.000903345725 298.493814,0.000903345725 C299.656907,0.000903345725 300.651479,0.413431227 301.477531,1.24149814 C302.303582,2.06805948 302.71736,3.06475093 302.71736,4.22705576 L302.71736,60.9135056 C302.71736,62.077316 302.303582,63.0589517 301.477531,63.8538959 C300.651479,64.6488401 299.656907,65.0478178 298.493814,65.0478178 C297.330722,65.0478178 296.349691,64.6488401 295.555237,63.8538959 Z M316.718709,62.8894238 C315.584205,61.7557249 315.018457,60.394684 315.018457,58.8002788 L315.018457,4.22765799 C315.018457,3.06535316 315.417189,2.06866171 316.213147,1.24210037 C317.007601,0.414033457 317.988632,0 319.151724,0 C320.314817,0 321.309389,0.414033457 322.135441,1.24210037 C322.961492,2.06866171 323.37527,3.06535316 323.37527,4.22765799 L323.37527,56.2287546 L353.39901,56.2287546 C354.560598,56.2287546 355.556675,56.6427881 356.382727,57.4678439 C357.208778,58.2944052 357.624061,59.2910967 357.624061,60.4549071 C357.624061,61.6187175 357.208778,62.6003532 356.382727,63.3937918 C355.556675,64.1902416 354.560598,64.5892193 353.39901,64.5892193 L320.803827,64.5892193 C319.21191,64.5892193 317.850204,64.0231227 316.718709,62.8894238 Z M364.094648,62.8894238 C362.960144,61.7557249 362.394396,60.394684 362.394396,58.8002788 L362.394396,4.22765799 C362.394396,3.06535316 362.793128,2.06866171 363.589086,1.24210037 C364.38354,0.414033457 365.364571,0 366.527663,0 C367.690756,0 368.685328,0.414033457 369.51138,1.24210037 C370.337431,2.06866171 370.751209,3.06535316 370.751209,4.22765799 L370.751209,56.2287546 L400.774949,56.2287546 C401.936537,56.2287546 402.932614,56.6427881 403.758666,57.4678439 C404.584717,58.2944052 405,59.2910967 405,60.4549071 C405,61.6187175 404.584717,62.6003532 403.758666,63.3937918 C402.932614,64.1902416 401.936537,64.5892193 400.774949,64.5892193 L368.179766,64.5892193 C366.587849,64.5892193 365.226143,64.0231227 364.094648,62.8894238 Z M44.9381088,152.281506 C41.8942065,150.614833 39.5003121,148.220967 37.7579301,145.096896 C36.0140434,141.972825 35.144357,138.323309 35.144357,134.145335 C35.144357,129.970372 36.0140434,126.319349 37.7579301,123.196784 C39.5003121,120.072714 41.8942065,117.677342 44.9381088,116.010669 C47.9835157,114.343996 51.4201311,113.509907 55.2509641,113.509907 C57.8540046,113.509907 60.1801899,113.817045 62.2295201,114.428309 C64.2788502,115.044089 66.3176478,115.924851 68.3489222,117.073606 C69.1900203,117.534312 69.6113216,118.261506 69.6113216,119.256691 C69.6113216,119.831822 69.400671,120.340706 68.9808743,120.78184 C68.5580683,121.221468 68.0043579,121.442788 67.3137246,121.442788 C66.9315441,121.442788 66.5869798,121.366004 66.2800317,121.212435 C64.5948262,120.330167 62.9487417,119.660186 61.3387686,119.19948 C59.7318049,118.741784 57.873565,118.509926 55.7670582,118.509926 C52.4733845,118.509926 49.6687212,119.190446 47.3515637,120.551487 C45.0329016,121.912528 43.2920243,123.770409 42.122913,126.126636 C40.9553064,128.482862 40.3715031,131.156766 40.3715031,134.145335 C40.3715031,137.133903 40.9553064,139.807807 42.122913,142.164033 C43.2920243,144.521766 45.0329016,146.381152 47.3515637,147.740688 C49.6687212,149.101729 52.4733845,149.782249 55.7670582,149.782249 C57.873565,149.782249 59.7318049,149.551896 61.3387686,149.09119 C62.9487417,148.631989 64.5948262,147.962007 66.2800317,147.07974 C66.5869798,146.926171 66.9315441,146.850892 67.3137246,146.850892 C68.0043579,146.850892 68.5580683,147.060167 68.9808743,147.481729 C69.400671,147.904796 69.6113216,148.422714 69.6113216,149.033978 C69.6113216,150.030669 69.1900203,150.757862 68.3489222,151.218569 C66.3176478,152.368829 64.2788502,153.251097 62.2295201,153.862361 C60.1801899,154.47513 57.8540046,154.782268 55.2509641,154.782268 C51.4201311,154.782268 47.9835157,153.948178 44.9381088,152.281506 Z M101.381356,152.886145 C99.1589911,151.621461 97.4451974,149.829825 96.2384699,147.509732 C95.0317425,145.192651 94.4298834,142.53832 94.4298834,139.548245 C94.4298834,136.559677 95.0317425,133.906851 96.2384699,131.588264 C97.4451974,129.269677 99.1589911,127.478041 101.381356,126.213357 C103.600711,124.948673 106.185696,124.316331 109.13631,124.316331 C112.046299,124.316331 114.613228,124.948673 116.834088,126.213357 C119.054948,127.478041 120.777769,129.269677 122.004057,131.588264 C123.22884,133.906851 123.842736,136.559677 123.842736,139.548245 C123.842736,142.53832 123.22884,145.192651 122.004057,147.509732 C120.777769,149.829825 119.054948,151.621461 116.834088,152.886145 C114.613228,154.150829 112.046299,154.783171 109.13631,154.783171 C106.185696,154.783171 103.600711,154.150829 101.381356,152.886145 Z M152.566009,153.747485 C152.067971,153.250645 151.8182,152.637875 151.8182,151.907671 L151.8182,114.602504 C151.8182,113.87531 152.067971,113.252002 152.566009,112.734084 C153.064048,112.216165 153.676439,111.957206 154.404689,111.957206 C155.16905,111.957206 155.801002,112.207132 156.29904,112.703972 C156.797079,113.203823 157.04685,113.836165 157.04685,114.602504 L157.04685,151.907671 C157.04685,152.637875 156.788051,153.250645 156.270452,153.747485 C155.754358,154.245831 155.131434,154.494251 154.404689,154.494251 C153.676439,154.494251 153.064048,154.245831 152.566009,153.747485 Z M187.550422,153.747485 C187.052384,153.250645 186.802613,152.637875 186.802613,151.907671 L186.802613,114.602504 C186.802613,113.87531 187.052384,113.252002 187.550422,112.734084 C188.048461,112.216165 188.660852,111.957206 189.389102,111.957206 C190.153463,111.957206 190.785415,112.207132 191.283453,112.703972 C191.781492,113.203823 192.031263,113.836165 192.031263,114.602504 L192.031263,151.907671 C192.031263,152.637875 191.772464,153.250645 191.254865,153.747485 C190.738771,154.245831 190.115847,154.494251 189.389102,154.494251 C188.660852,154.494251 188.048461,154.245831 187.550422,153.747485 Z M223.943637,150.787221 C221.319531,148.125362 220.008983,144.379489 220.008983,139.5496 C220.008983,136.829024 220.505517,134.319229 221.501594,132.020214 C222.497671,129.719693 224.027897,127.861812 226.096788,126.442054 C228.165678,125.026812 230.711542,124.31618 233.738893,124.31618 C236.57064,124.31618 239.021712,124.978634 241.090602,126.30053 C243.157988,127.622426 244.72884,129.385455 245.801654,131.588113 C246.872963,133.792277 247.411627,136.196682 247.411627,138.801329 C247.411627,139.531533 247.169379,140.144303 246.692405,140.641143 C246.213927,141.139489 245.571443,141.389414 244.767961,141.389414 L225.291801,141.389414 C225.598749,144.070846 226.594826,146.160586 228.280032,147.654117 C229.965237,149.149154 232.320011,149.897426 235.345857,149.897426 C236.954326,149.897426 238.362676,149.743857 239.569403,149.436719 C240.774626,149.131087 241.952765,148.689954 243.100811,148.114823 C243.40776,147.961255 243.752324,147.88447 244.136009,147.88447 C244.748401,147.88447 245.284055,148.095251 245.744477,148.516812 C246.2049,148.939879 246.433606,149.474359 246.433606,150.126273 C246.433606,150.969396 245.935568,151.678522 244.939491,152.253652 C243.44688,153.096775 241.970821,153.727612 240.515827,154.150678 C239.060832,154.570734 237.184537,154.78302 234.88694,154.78302 C230.213504,154.78302 226.566238,153.452091 223.943637,150.787221 Z M281.935618,167.141091 C279.675637,166.567467 277.818902,165.856835 276.363907,165.013712 C275.674779,164.592151 275.32871,163.922169 275.32871,163.002262 C275.32871,162.389493 275.549893,161.842968 275.990755,161.364195 C276.430112,160.883916 276.976299,160.646035 277.627811,160.646035 C277.933255,160.646035 278.277819,160.72282 278.661504,160.874883 C281.571493,162.330775 284.731253,163.06098 288.140785,163.06098 C293.999883,163.06098 296.929432,159.935403 296.929432,153.690273 L296.929432,149.839009 C294.209029,152.752299 290.934916,154.208191 287.105587,154.208191 C284.847111,154.208191 282.653335,153.6436 280.527268,152.512913 C278.402705,151.382225 276.64979,149.69598 275.271533,147.452671 C273.893276,145.210868 273.204147,142.481258 273.204147,139.262336 C273.204147,136.043414 273.893276,133.312299 275.271533,131.070496 C276.64979,128.828693 278.402705,127.142448 280.527268,126.01176 C282.653335,124.882578 284.847111,124.316481 287.105587,124.316481 C290.934916,124.316481 294.209029,125.773879 296.929432,128.684158 L296.929432,127.247838 C296.929432,126.520645 297.179204,125.897336 297.677242,125.379418 C298.173776,124.8615 298.786167,124.604046 299.515921,124.604046 C300.242666,124.604046 300.864086,124.8615 301.381685,125.379418 C301.899283,125.897336 302.156578,126.520645 302.156578,127.247838 L302.156578,152.943507 C302.156578,157.77189 300.988971,161.489158 298.652254,164.09531 C296.31704,166.699957 292.98575,168.003786 288.658384,168.003786 C286.436019,168.003786 284.195599,167.716221 281.935618,167.141091 Z M334.069403,150.787221 C331.445298,148.125362 330.13475,144.379489 330.13475,139.5496 C330.13475,136.829024 330.631283,134.319229 331.62736,132.020214 C332.623437,129.719693 334.153664,127.861812 336.222554,126.442054 C338.291445,125.026812 340.837309,124.31618 343.86466,124.31618 C346.696407,124.31618 349.147478,124.978634 351.216368,126.30053 C353.283754,127.622426 354.854606,129.385455 355.92742,131.588113 C356.998729,133.792277 357.537393,136.196682 357.537393,138.801329 C357.537393,139.531533 357.295145,140.144303 356.818172,140.641143 C356.339694,141.139489 355.697209,141.389414 354.893727,141.389414 L335.417568,141.389414 C335.724516,144.070846 336.720592,146.160586 338.405798,147.654117 C340.091003,149.149154 342.445777,149.897426 345.471623,149.897426 C347.080092,149.897426 348.488442,149.743857 349.69517,149.436719 C350.900392,149.131087 352.078531,148.689954 353.226578,148.114823 C353.533526,147.961255 353.87809,147.88447 354.261775,147.88447 C354.874167,147.88447 355.409821,148.095251 355.870244,148.516812 C356.330666,148.939879 356.559372,149.474359 356.559372,150.126273 C356.559372,150.969396 356.061334,151.678522 355.065257,152.253652 C353.572647,153.096775 352.096587,153.727612 350.641593,154.150678 C349.186599,154.570734 347.310303,154.78302 345.012706,154.78302 C340.33927,154.78302 336.692004,153.452091 334.069403,150.787221 Z M113.645739,148.918952 C115.081173,148.191758 116.26834,147.041498 117.20724,145.469677 C118.144636,143.899361 118.614086,141.905978 118.614086,139.491033 C118.614086,137.11674 118.144636,135.142929 117.20724,133.571108 C116.26834,132.000792 115.081173,130.861071 113.645739,130.150439 C112.208801,129.441312 110.705657,129.087502 109.13631,129.087502 C107.527842,129.087502 106.005138,129.441312 104.5682,130.150439 C103.132766,130.861071 101.954627,132.000792 101.035287,133.571108 C100.115947,135.142929 99.6570295,137.11674 99.6570295,139.491033 C99.6570295,141.905978 100.115947,143.899361 101.035287,145.469677 C101.954627,147.041498 103.132766,148.191758 104.5682,148.918952 C106.005138,149.647651 107.527842,150.012 109.13631,150.012 C110.705657,150.012 112.208801,149.647651 113.645739,148.918952 Z M242.240153,137.134656 C242.1258,135.258708 241.636789,133.686887 240.774626,132.422203 C239.912463,131.156013 238.850182,130.228578 237.586278,129.633875 C236.322374,129.040678 235.038909,128.742574 233.738893,128.742574 C232.434364,128.742574 231.152404,129.040678 229.8885,129.633875 C228.624596,130.228578 227.571343,131.156013 226.72874,132.422203 C225.886137,133.686887 225.407659,135.258708 225.291801,137.134656 L242.240153,137.134656 Z M292.96619,148.28676 C294.344447,147.520422 295.665528,146.486091 296.929432,145.182262 L296.929432,133.340905 C295.665528,132.038582 294.344447,131.004251 292.96619,130.237913 C291.586428,129.471574 289.99752,129.087652 288.197961,129.087652 C285.325589,129.087652 282.978339,129.959381 281.15922,131.702838 C279.340101,133.447801 278.431293,135.96663 278.431293,139.262336 C278.431293,142.558043 279.340101,145.076872 281.15922,146.820329 C282.978339,148.565292 285.325589,149.43702 288.197961,149.43702 C289.99752,149.43702 291.586428,149.054604 292.96619,148.28676 Z M352.365919,137.134656 C352.251566,135.258708 351.762555,133.686887 350.900392,132.422203 C350.038229,131.156013 348.975948,130.228578 347.712044,129.633875 C346.44814,129.040678 345.164675,128.742574 343.86466,128.742574 C342.56013,128.742574 341.27817,129.040678 340.014266,129.633875 C338.750362,130.228578 337.697109,131.156013 336.854506,132.422203 C336.011903,133.686887 335.533425,135.258708 335.417568,137.134656 L352.365919,137.134656 Z" id="Combined-Shape"></path>
                </g>
            </g>
        </g>
    </g>
</svg>