<?xml version="1.0" standalone="no"?>
<!DOCTYPE svg PUBLIC "-//W3C//DTD SVG 20010904//EN"
 "http://www.w3.org/TR/2001/REC-SVG-20010904/DTD/svg10.dtd">
<svg version="1.0" xmlns="http://www.w3.org/2000/svg"
 width="200.000000pt" height="200.000000pt" viewBox="0 0 200.000000 200.000000"
 preserveAspectRatio="xMidYMid meet">
<metadata>
Created by potrace 1.10, written by Peter Selinger 2001-2011
</metadata>
<g transform="translate(0.000000,200.000000) scale(0.100000,-0.100000)"
fill="#000000" stroke="none">
<path d="M914 1622 c-115 -87 -279 -211 -364 -276 -85 -65 -190 -144 -232
-175 -42 -31 -77 -60 -77 -66 0 -5 30 -56 67 -112 37 -56 107 -164 157 -240
127 -196 416 -637 419 -640 1 -1 43 32 92 75 50 42 115 97 144 122 30 25 104
88 165 140 60 53 183 157 272 233 l162 138 -33 57 c-18 31 -111 185 -206 342
-95 157 -199 327 -229 378 -31 51 -67 111 -81 134 -14 23 -30 43 -36 45 -6 2
-105 -68 -220 -155z m252 5 c98 -282 121 -342 130 -339 16 5 7 44 -46 186 -28
76 -49 140 -48 142 2 1 54 -81 115 -184 197 -329 324 -537 340 -554 26 -29 5
-21 -115 40 l-114 58 -29 84 c-16 47 -33 94 -39 105 -5 11 -11 49 -12 85 -2
39 -7 63 -13 60 -5 -3 -10 -12 -10 -20 0 -8 -9 -16 -20 -18 -32 -6 -45 -22
-45 -57 0 -37 19 -58 50 -53 18 3 24 -7 46 -71 14 -41 30 -83 35 -93 10 -18 7
-19 -22 -16 -42 4 -49 -17 -8 -26 l31 -6 -21 -32 c-18 -29 -25 -33 -63 -31
-96 3 -94 2 -90 45 3 25 11 44 23 51 27 17 23 26 -11 25 -29 -1 -30 -2 -30
-53 0 -39 -4 -54 -16 -59 -26 -10 -82 -7 -89 5 -4 6 -14 8 -22 5 -12 -5 -13
-2 -7 11 4 10 7 32 6 50 -1 18 3 35 8 38 6 4 10 -11 10 -37 0 -57 9 -68 50
-66 35 1 35 1 38 53 l2 52 -69 7 c-38 3 -77 3 -85 0 -9 -3 -16 -2 -16 4 0 5
-56 15 -125 22 -78 8 -125 17 -125 24 0 6 9 22 20 36 11 14 20 33 20 42 0 9 4
19 8 22 4 3 6 26 3 53 -6 45 -8 48 -35 48 -16 0 -31 -6 -34 -13 -3 -9 3 -11
22 -6 33 8 35 -13 2 -26 -13 -5 -27 -14 -31 -20 -10 -16 16 -42 37 -37 22 6
23 -6 2 -24 -23 -19 -46 -68 -38 -81 5 -8 1 -9 -12 -4 -10 4 -109 19 -219 32
-190 24 -225 31 -198 41 11 4 95 67 403 302 69 52 163 124 210 160 47 35 100
77 119 92 19 16 37 26 39 24 3 -2 -9 -26 -26 -52 -42 -68 -204 -365 -206 -380
-1 -7 -5 -16 -9 -19 -12 -12 -8 -71 6 -82 7 -6 27 -10 45 -10 l32 1 0 73 c0
40 -5 76 -11 79 -7 5 -5 14 4 28 8 12 30 51 50 87 19 36 52 94 72 130 19 36
48 88 62 117 15 29 29 50 32 48 2 -3 19 -47 37 -98z m-271 -412 c0 -23 -4 -30
-20 -30 -21 0 -31 25 -21 51 11 28 41 12 41 -21z m425 -1 c0 -28 -3 -35 -17
-32 -31 6 -29 68 2 68 11 0 15 -10 15 -36z m-980 -157 c36 -16 258 -97 266
-97 2 0 4 6 4 14 0 8 -31 25 -77 41 -174 61 -174 62 -8 42 l100 -12 3 -73 c3
-72 22 -104 22 -37 0 33 2 35 35 35 33 0 35 -2 35 -35 0 -19 5 -35 10 -35 12
0 13 9 10 78 l-2 53 79 -6 c177 -13 184 -15 173 -35 -14 -25 -13 -63 2 -78 7
-7 24 -12 39 -12 15 0 30 -4 33 -9 3 -4 36 -11 73 -14 110 -10 193 -20 193
-23 0 -17 -67 -104 -81 -105 -11 -1 -38 -2 -61 -3 l-43 -1 -3 -52 c-2 -42 0
-53 12 -53 10 0 16 13 18 42 4 57 28 64 28 8 0 -34 -10 -58 -53 -123 -88 -135
-213 -330 -233 -364 -20 -36 -34 -42 -34 -17 0 16 -95 410 -106 438 -5 12 0
16 20 16 16 0 26 6 26 14 0 9 -7 12 -19 9 -26 -7 -48 32 -30 53 7 9 21 13 31
11 11 -3 18 0 18 9 0 21 -44 17 -64 -5 -14 -15 -16 -27 -10 -53 4 -18 7 -42 5
-53 -1 -11 18 -101 43 -200 25 -98 44 -181 42 -183 -2 -1 -14 14 -27 35 -36
59 -291 451 -408 628 -111 167 -119 181 -105 173 5 -3 25 -12 44 -21z m380
-37 c0 -28 -3 -30 -35 -30 -30 0 -35 3 -35 24 0 20 6 25 33 29 17 2 33 5 35 5
1 1 2 -11 2 -28z m328 -46 c15 -27 3 -56 -22 -52 -21 3 -32 28 -22 54 7 19 33
18 44 -2z m100 -18 c-3 -34 -30 -44 -36 -13 -5 26 4 44 23 44 12 0 15 -8 13
-31z m325 -38 c23 -11 67 -32 97 -44 65 -27 49 -29 -80 -9 -52 8 -99 15 -103
15 -9 0 31 60 39 60 3 0 24 -10 47 -22z m96 -91 l103 -12 -63 -50 c-35 -27
-77 -61 -94 -76 -35 -32 -305 -262 -390 -334 -33 -27 -84 -72 -114 -100 -30
-27 -52 -43 -49 -35 3 8 58 95 122 192 141 217 158 248 144 271 -12 23 -4 47
17 47 11 0 15 -11 15 -45 0 -26 5 -45 11 -45 7 0 10 20 7 55 -4 69 10 67 36
-5 l20 -53 -22 -18 c-12 -9 -22 -20 -22 -23 0 -13 28 -5 42 12 17 20 61 133
54 139 -10 10 -25 -8 -31 -37 -8 -36 -21 -31 -30 10 -4 17 -11 30 -15 30 -5 0
5 23 22 50 l32 51 50 -6 c28 -3 98 -12 155 -18z"/>
<path d="M942 1243 c3 -76 4 -78 29 -81 33 -4 59 21 59 57 0 33 -16 51 -46 51
-17 0 -20 5 -16 25 3 19 0 25 -12 25 -15 0 -16 -11 -14 -77z m63 -4 c13 -19
-4 -59 -25 -59 -15 0 -20 7 -20 28 0 16 3 32 7 35 10 10 31 8 38 -4z"/>
<path d="M630 1236 c0 -78 16 -106 22 -38 l3 37 23 -37 c13 -21 31 -38 39 -38
12 0 10 8 -10 33 -24 32 -25 34 -6 45 37 23 19 60 -34 69 l-37 6 0 -77z m58
42 c8 -8 9 -15 1 -25 -18 -21 -39 -15 -39 12 0 27 18 33 38 13z"/>
<path d="M1056 1254 c-32 -32 -10 -94 34 -94 26 0 50 27 50 55 0 28 -24 55
-50 55 -10 0 -26 -7 -34 -16z m59 -23 c8 -26 -4 -51 -25 -51 -10 0 -21 7 -24
16 -10 25 3 54 24 54 10 0 21 -8 25 -19z"/>
<path d="M1154 1227 c3 -57 11 -67 51 -65 l35 1 0 54 c0 63 -17 72 -22 11 -2
-31 -8 -44 -20 -46 -15 -3 -18 4 -18 42 0 33 -4 46 -14 46 -11 0 -14 -11 -12
-43z"/>
<path d="M1269 994 c-12 -14 -10 -19 14 -38 31 -25 35 -39 9 -34 -11 2 -21 -1
-23 -7 -2 -5 8 -11 23 -13 18 -2 30 3 37 17 9 16 7 23 -14 39 -31 24 -32 36
-4 27 15 -5 20 -3 17 6 -7 21 -43 22 -59 3z"/>
<path d="M776 988 c-21 -30 -20 -51 4 -73 31 -28 74 -10 78 31 6 57 -52 86
-82 42z m62 -31 c4 -34 -25 -49 -44 -22 -10 13 -10 23 -3 37 15 27 43 18 47
-15z"/>
<path d="M880 953 c0 -63 18 -71 22 -11 2 31 8 44 21 46 14 3 17 -4 16 -40 0
-24 -3 -37 -6 -30 -7 17 -23 15 -23 -3 0 -11 11 -15 36 -15 28 0 34 3 26 13
-6 7 -12 30 -14 52 -3 39 -4 40 -40 40 l-38 1 0 -53z"/>
<path d="M677 904 c2 -20 13 -64 24 -98 39 -117 54 -90 19 36 -23 85 -50 123
-43 62z"/>
<path d="M1000 775 c0 -20 -5 -25 -25 -25 -27 0 -45 -25 -45 -63 0 -32 18 -46
58 -45 l32 1 0 79 c0 45 -4 78 -10 78 -5 0 -10 -11 -10 -25z m-5 -80 c0 -23
-4 -30 -20 -30 -21 0 -31 25 -21 51 11 28 41 12 41 -21z"/>
<path d="M655 757 c-54 -130 -50 -117 -31 -117 7 0 16 8 18 18 7 24 54 22 72
-4 26 -35 26 -8 0 57 -34 85 -41 90 -59 46z m45 -59 c0 -5 -11 -8 -24 -8 -24
0 -24 2 -14 31 l11 32 13 -24 c7 -13 13 -27 14 -31z"/>
<path d="M847 744 c-15 -15 -6 -24 18 -18 19 5 25 2 25 -10 0 -9 -8 -16 -19
-16 -24 0 -43 -23 -35 -43 4 -11 17 -16 40 -15 l35 1 -3 51 c-3 46 -5 51 -28
54 -14 2 -29 0 -33 -4z"/>
<path d="M1052 738 c-16 -16 -16 -70 0 -86 16 -16 68 -15 68 1 0 7 -11 13 -27
12 -14 0 -28 6 -30 13 -3 8 6 12 26 12 26 0 31 4 31 24 0 33 -43 49 -68 24z"/>
</g>
</svg>
