<?xml version="1.0" standalone="no"?>
<!DOCTYPE svg PUBLIC "-//W3C//DTD SVG 20010904//EN"
 "http://www.w3.org/TR/2001/REC-SVG-20010904/DTD/svg10.dtd">
<svg version="1.0" xmlns="http://www.w3.org/2000/svg"
 width="156.000000pt" height="160.000000pt" viewBox="0 0 156.000000 160.000000"
 preserveAspectRatio="xMidYMid meet">

<g transform="translate(0.000000,160.000000) scale(0.100000,-0.100000)"
fill="darkblue" stroke="none">
<path fill="darkblue" d="M1080 1465 c0 -34 26 -102 36 -93 2 3 -1 19 -7 37 -15 42 -5 50 26
21 25 -24 35 -22 12 2 -7 7 -20 25 -30 41 -24 37 -37 34 -37 -8z"/>
<path d="M1200 1396 c0 -2 9 -25 20 -51 11 -26 20 -53 20 -60 0 -20 -41 -15
-67 8 l-23 20 22 -44 c16 -32 23 -67 26 -129 5 -118 -3 -136 -73 -150 -59 -12
-65 -12 -225 27 -215 52 -313 7 -426 -192 -70 -125 -123 -195 -174 -230 -46
-32 -104 -54 -144 -55 -23 0 -27 -3 -23 -20 8 -30 -17 -25 -47 11 -30 35 -33
67 -11 109 9 17 12 30 7 30 -22 0 -62 -44 -73 -79 -29 -98 85 -192 198 -162
56 15 185 102 253 169 31 32 73 86 94 122 47 81 42 76 64 56 18 -15 20 -15 45
4 41 32 47 26 47 -46 0 -62 -3 -72 -49 -148 -57 -94 -75 -164 -64 -246 l8 -55
48 -9 c39 -8 68 -4 167 19 151 35 259 33 338 -6 48 -24 50 -24 43 -4 -4 11
-22 27 -40 37 -44 22 -46 25 -31 43 11 13 8 15 -23 15 -20 0 -42 -6 -49 -14
-10 -9 -31 -12 -73 -8 l-59 5 38 19 c21 11 36 21 34 23 -1 1 -41 0 -88 -4 -78
-7 -83 -8 -57 -19 16 -7 38 -12 50 -13 21 0 21 -1 -3 -11 -29 -12 -150 -4
-179 12 -32 17 -44 49 -44 120 1 83 13 114 66 161 47 42 96 57 133 40 43 -19
24 -102 -20 -85 -24 9 -19 -13 5 -27 32 -17 104 -5 149 25 76 50 223 291 280
460 28 80 28 81 62 81 31 0 33 2 23 22 -12 28 -19 28 -62 2 -19 -12 -35 -20
-36 -18 -14 21 -27 86 -27 129 0 36 -7 63 -21 86 -19 31 -29 41 -29 30z m22
-423 c-18 -35 -77 -82 -88 -70 -5 5 99 116 104 112 2 -2 -5 -20 -16 -42z
m-246 -20 c97 -47 66 -51 -91 -10 -66 17 -76 22 -55 28 49 14 92 9 146 -18z
m-778 -460 c-10 -2 -26 -2 -35 0 -10 3 -2 5 17 5 19 0 27 -2 18 -5z"/>
<path d="M1400 1182 c0 -5 9 -17 20 -27 23 -21 27 -4 4 19 -17 18 -24 20 -24
8z"/>
<path d="M1321 710 c-39 -70 -96 -134 -174 -195 -65 -51 -77 -64 -77 -90 l1
-30 24 28 c28 31 52 29 35 -4 -10 -17 -7 -19 24 -19 27 0 36 -5 41 -22 3 -13
18 -56 32 -95 l25 -73 40 0 40 0 -26 31 c-14 17 -28 40 -31 52 -3 12 -10 42
-16 67 -13 52 -13 69 -1 166 7 59 16 83 50 135 36 55 51 89 39 89 -2 0 -13
-18 -26 -40z m-93 -198 c4 -28 -14 -52 -40 -52 -25 0 -33 25 -19 56 15 33 54
30 59 -4z"/>
<path d="M1190 499 c0 -5 5 -7 10 -4 6 3 10 8 10 11 0 2 -4 4 -10 4 -5 0 -10
-5 -10 -11z"/>
<path d="M1362 692 l-23 -37 25 28 c14 15 26 32 26 38 0 15 -4 11 -28 -29z"/>
<path d="M1401 666 c-6 -16 -10 -31 -7 -33 7 -8 28 37 23 50 -3 7 -10 -1 -16
-17z"/>
<path d="M1030 419 c0 -5 5 -7 10 -4 6 3 10 8 10 11 0 2 -4 4 -10 4 -5 0 -10
-5 -10 -11z"/>
<path d="M1427 243 c-85 -6 -70 -27 21 -31 67 -3 72 -1 72 18 0 13 -6 19 -17
18 -10 -1 -44 -3 -76 -5z"/>
</g>
</svg>
