<?xml version="1.0" encoding="UTF-8" standalone="no"?>
<svg width="270px" height="255px" viewBox="0 0 270 255" version="1.1" xmlns="http://www.w3.org/2000/svg" xmlns:xlink="http://www.w3.org/1999/xlink">
    <!-- Generator: Sketch 50.2 (55047) - http://www.bohemiancoding.com/sketch -->
    <title>Group</title>
    <desc>Created with Sketch.</desc>
    <defs>
        <linearGradient x1="-1.11022302e-14%" y1="50%" x2="100%" y2="50%" id="linearGradient-1">
            <stop stop-color="#F29100" offset="0%"></stop>
            <stop stop-color="#E50053" offset="100%"></stop>
        </linearGradient>
    </defs>
    <g id="Symbols" stroke="none" stroke-width="1" fill="none" fill-rule="evenodd">
        <g id="logo/positive/total/landscape">
            <g id="Group">
                <g id="logo/positive/vignet" fill="url(#linearGradient-1)">
                    <path d="M263.910958,0.847 C262.584681,0.863 261.275447,1.317 260.204802,2.181 L134.999499,103.132 L9.79519777,2.181 C7.99474999,0.727 5.51462316,0.437 3.42345721,1.432 C1.33128878,2.429 0,4.535 0,6.847 L0,248.847 C0,252.16 2.69265185,254.847 6.01485893,254.847 C9.33606353,254.847 12.0297179,252.16 12.0297179,248.847 L12.0297179,74.103 L42.7115133,98.841 L42.7115133,248.847 C42.7115133,252.16 45.4041651,254.847 48.7263722,254.847 C52.0475768,254.847 54.7412311,252.16 54.7412311,248.847 L54.7412311,164.277 L131.21916,225.939 C132.320882,226.828 133.66019,227.273 134.999499,227.273 C136.313745,227.273 137.628995,226.846 138.720691,225.988 L215.258769,165.884 L215.258769,248.847 C215.258769,252.16 217.952423,254.847 221.273628,254.847 C224.595835,254.847 227.288487,252.16 227.288487,248.847 L227.288487,98.842 L257.970282,74.103 L257.970282,248.847 C257.970282,252.16 260.663936,254.847 263.986144,254.847 C267.307348,254.847 270,252.16 270,248.847 L270,6.847 C270,4.535 268.669714,2.429 266.577545,1.432 C265.777569,1.051 264.921454,0.858 264.067344,0.847 L263.910958,0.847 Z M138.78084,115.513 L257.970282,19.411 L257.970282,58.673 L134.999499,157.824 L12.0297179,58.673 L12.0297179,19.411 L131.21916,115.513 C132.320882,116.402 133.66019,116.847 134.999499,116.847 C136.338807,116.847 137.678116,116.402 138.78084,115.513 Z M138.78084,170.205 L215.258769,108.542 L215.258769,150.612 L135.049623,213.599 L54.7412311,148.846 L54.7412311,108.542 L131.21916,170.205 C132.321884,171.094 133.66019,171.539 134.999499,171.539 C136.33981,171.539 137.678116,171.094 138.78084,170.205 Z" id="Clip-2"></path>
                </g>
            </g>
        </g>
    </g>
</svg>