 <svg  version="1.0" xmlns="http://www.w3.org/2000/svg"  width="32.000000pt" height="32.000000pt" viewBox="0 0 32.000000 32.000000"  preserveAspectRatio="xMidYMid meet">  <g transform="translate(0.000000,32.000000) scale(0.100000,-0.100000)" fill="#1a5fb4" stroke="none"> <path d="M111 310 c-69 -17 -118 -99 -104 -174 16 -85 66 -126 153 -126 102 0 153 55 148 158 -3 55 -4 57 -33 60 -24 2 -38 -5 -70 -38 -30 -31 -36 -43 -27 -52 9 -9 22 -2 57 32 l45 44 0 -47 c0 -55 -20 -91 -61 -113 -96 -49 -207 37 -178 138 17 62 81 102 144 91 l27 -6 -43 -43 c-34 -34 -40 -47 -31 -56 19 -19 79 45 84 89 2 19 2 36 -2 38 -15 9 -79 13 -109 5z"/> </g> </svg> 