<?xml version="1.0" standalone="no"?>
<!DOCTYPE svg PUBLIC "-//W3C//DTD SVG 20010904//EN"
 "http://www.w3.org/TR/2001/REC-SVG-20010904/DTD/svg10.dtd">
<svg version="1.0" xmlns="http://www.w3.org/2000/svg"
 width="250.000000pt" height="250.000000pt" viewBox="0 0 250.000000 250.000000"
 preserveAspectRatio="xMidYMid meet">

<g transform="translate(0.000000,250.000000) scale(0.100000,-0.100000)"
fill="#000000" stroke="none">
<path fill="darkred" d="M0 1250 l0 -1250 1250 0 1250 0 0 1250 0 1250 -1250 0 -1250 0 0
-1250z m1310 1105 l0 -45 45 0 45 0 0 -62 c0 -63 0 -63 39 -85 22 -13 61 -41
88 -62 99 -82 93 -70 93 -170 l0 -90 82 -3 82 -3 14 -50 c48 -167 -8 -483
-145 -814 -93 -226 -275 -544 -356 -620 -67 -63 -105 -42 -212 119 -161 240
-321 605 -391 890 -24 98 -28 135 -28 255 0 97 4 152 15 180 l14 40 78 3 77 3
0 72 c0 40 3 82 6 95 7 23 134 131 193 164 29 16 31 20 31 77 l0 60 43 3 c42
3 42 3 45 46 l3 42 70 0 69 0 0 -45z m730 -967 c0 -45 2 -48 19 -39 15 8 20 7
25 -6 4 -9 5 -17 4 -18 -7 -6 -148 -75 -153 -75 -8 0 -45 88 -45 106 0 41 78
71 109 42 11 -11 12 -5 7 31 -7 45 -7 45 14 26 15 -13 20 -30 20 -67z m-1536
-6 c32 -17 63 -29 67 -26 12 7 11 -13 -2 -37 -9 -18 -12 -19 -27 -6 -28 24
-116 65 -130 59 -10 -3 -9 4 3 28 9 18 20 29 24 23 3 -5 32 -24 65 -41z m4
-84 c23 -7 42 -15 42 -18 -1 -15 -20 -29 -65 -45 -70 -26 -74 -32 -21 -40 31
-5 46 -12 46 -22 0 -11 -7 -14 -22 -10 -13 3 -51 11 -86 18 -72 14 -80 34 -22
54 19 7 49 18 65 25 l30 12 -25 13 c-14 8 -35 14 -47 15 -16 0 -23 6 -23 18 0
29 8 31 49 11 21 -10 56 -24 79 -31z m1607 -48 c10 -11 18 -36 19 -61 3 -112
-159 -124 -180 -13 -7 37 0 54 21 54 11 0 13 -8 9 -30 -7 -34 9 -60 37 -60 17
0 17 3 4 48 -8 26 -15 48 -15 50 0 1 9 2 21 2 11 0 18 -4 15 -8 -7 -11 15 -82
25 -82 13 0 39 31 39 46 0 17 -35 54 -52 54 -9 0 -8 4 2 10 22 14 35 12 55
-10z m-1685 -130 c0 -13 -7 -20 -20 -20 -19 0 -27 20 -13 33 13 14 33 6 33
-13z m1571 -40 c15 -9 17 -15 9 -30 -20 -38 -13 -42 70 -38 80 3 80 3 80 -22
0 -25 -1 -25 -77 -25 -76 0 -78 -1 -78 -24 0 -13 -6 -26 -12 -28 -10 -4 -13
15 -13 70 0 42 -3 82 -6 91 -7 19 0 20 27 6z m-1503 -15 c2 -1 0 -26 -4 -55
-9 -69 -39 -104 -88 -104 -57 0 -89 38 -94 111 l-4 58 93 -4 c52 -1 95 -4 97
-6z m1577 -198 c39 -6 71 -11 73 -13 2 -1 0 -14 -4 -28 -4 -18 -10 -24 -18
-18 -14 12 -136 33 -147 26 -5 -3 -9 9 -9 26 0 27 3 31 18 24 9 -4 49 -12 87
-17z m-1595 3 c21 -11 55 -93 45 -109 -3 -6 -15 -11 -25 -11 -17 0 -18 3 -8
25 9 21 8 28 -7 45 -31 34 -48 26 -40 -17 4 -21 11 -39 16 -41 15 -6 10 -19
-10 -25 -16 -4 -21 2 -26 32 -9 55 -19 66 -39 45 -23 -23 -17 -66 12 -79 29
-13 28 -25 -2 -25 -14 0 -32 10 -40 22 -19 27 -21 88 -3 110 28 35 88 49 127
28z m1515 -66 c14 -6 13 -10 -10 -28 -34 -27 -28 -59 15 -81 54 -28 105 10 82
61 -12 24 -6 29 22 18 37 -14 1 -115 -48 -134 -33 -12 -91 5 -111 33 -19 28
-19 60 1 103 17 36 22 38 49 28z m-1449 -91 c17 -23 17 -33 0 -33 -25 0 -136
-52 -136 -63 0 -14 -29 25 -30 39 0 6 6 11 13 11 21 0 127 46 127 55 0 13 12
9 26 -9z m1364 -61 c0 -6 51 -35 138 -79 2 -1 -2 -11 -8 -23 -10 -19 -14 -20
-28 -8 -33 28 -112 69 -122 63 -11 -7 -13 15 -4 39 6 16 24 22 24 8z m-1372
-45 c2 -10 -3 -17 -12 -17 -18 0 -29 16 -21 31 9 14 29 6 33 -14z m83 -84 c-7
-26 -14 -57 -17 -68 -3 -13 8 -6 34 22 31 34 42 40 50 30 8 -10 -5 -27 -54
-71 -37 -33 -69 -55 -74 -50 -5 5 -2 35 5 69 8 33 15 64 15 68 0 10 -30 -7
-58 -33 -18 -17 -26 -19 -37 -10 -17 14 -20 30 -5 30 17 0 120 72 120 84 0 5
7 3 16 -6 15 -14 15 -23 5 -65z m1219 18 c0 -5 24 -28 52 -51 l53 -42 17 22
c10 12 18 31 18 41 0 26 17 24 25 -2 5 -16 -2 -31 -26 -58 -19 -20 -37 -40
-41 -45 -4 -5 -14 -2 -23 7 -35 35 -103 87 -114 87 -7 0 -6 9 5 25 16 25 34
33 34 16z m-50 -76 c10 -12 9 -15 -5 -15 -24 0 -55 -29 -55 -51 0 -31 16 -30
52 5 24 23 39 31 46 24 6 -6 -2 -21 -27 -43 -29 -27 -34 -36 -24 -46 9 -9 21
-10 40 -3 22 7 29 17 31 42 4 35 16 41 31 14 18 -34 -45 -102 -96 -102 -28 0
-79 44 -87 75 -8 30 14 77 46 99 28 20 32 20 48 1z m-997 -57 c18 -24 19 -32
9 -67 -21 -70 -99 -95 -147 -46 -35 34 -33 78 5 116 25 25 36 30 71 27 32 -2
47 -10 62 -30z m882 -20 c-3 -8 -21 -20 -40 -27 -36 -13 -42 -25 -25 -51 8
-13 13 -13 39 2 28 15 41 14 41 -2 0 -4 -13 -13 -30 -20 -16 -7 -30 -14 -30
-17 0 -12 31 -62 41 -65 6 -2 -1 -10 -15 -17 -14 -8 -27 -12 -29 -10 -2 3 -53
107 -75 151 -3 6 120 79 125 74 2 -2 1 -10 -2 -18z m-791 -34 c11 -4 16 -19
16 -50 l0 -44 28 31 c22 25 33 30 51 24 16 -5 21 -12 16 -23 -11 -28 -24 -133
-18 -148 6 -17 1 -17 -31 -2 -17 7 -23 15 -17 22 5 6 11 31 13 55 l4 44 -42
-47 c-23 -25 -45 -46 -49 -46 -4 0 -5 29 -3 65 l4 65 -31 -37 c-16 -21 -29
-41 -27 -45 1 -4 -4 -8 -12 -8 -33 0 -25 25 23 74 28 28 51 57 51 64 0 14 2
14 24 6z m210 -93 c-9 -23 -25 -102 -26 -129 0 -16 -5 -21 -15 -18 -8 3 -21 6
-28 6 -11 0 -11 6 1 30 9 16 18 54 21 83 5 50 7 53 30 49 18 -3 22 -9 17 -21z
m349 10 c4 -17 1 -19 -31 -14 -27 5 -38 2 -48 -12 -25 -34 -18 -44 24 -33 20
5 42 14 48 19 8 6 14 4 18 -7 8 -20 12 -17 -48 -35 -47 -14 -48 -15 -32 -32
24 -24 62 -21 81 6 13 19 17 20 25 7 16 -24 -32 -60 -79 -60 -46 0 -79 31 -88
83 -6 42 7 63 52 83 44 19 72 17 78 -5z m-233 -53 l43 -53 -5 53 c-4 44 -3 52
10 50 9 -2 16 -6 16 -10 1 -4 3 -41 6 -83 4 -65 3 -75 -11 -75 -9 0 -34 22
-55 50 -20 27 -42 46 -47 43 -5 -3 -7 -25 -4 -49 4 -41 3 -44 -20 -44 -19 0
-23 4 -19 18 3 9 6 47 8 84 4 86 20 89 78 16z m338 15 c5 -17 -26 -29 -40 -15
-6 6 -7 15 -3 22 9 14 37 9 43 -7z"/>
<path fill="darkred" d="M1220 2305 l0 -45 -45 0 c-33 0 -45 -4 -45 -15 0 -11 12 -15 45 -15
l45 0 0 -45 c0 -33 4 -45 14 -45 10 0 16 14 18 43 3 42 3 42 46 45 28 2 42 8
42 18 0 10 -12 14 -45 14 l-45 0 0 45 c0 33 -4 45 -15 45 -11 0 -15 -12 -15
-45z"/>
<path fill="darkred" d="M1092 2115 c-29 -14 -51 -29 -47 -35 10 -16 35 -12 65 13 15 12 36
27 46 34 35 22 -8 14 -64 -12z"/>
<path fill="darkred" d="M1310 2131 c0 -6 5 -11 12 -11 6 0 27 -12 45 -26 28 -21 39 -24 56
-16 21 9 19 11 -23 30 -65 29 -90 35 -90 23z"/>
<path fill="darkred" d="M1172 2060 c-34 -15 -53 -71 -50 -148 l3 -67 113 -3 112 -3 0 85 c0
74 -3 88 -23 112 -19 22 -34 28 -78 30 -30 2 -64 -1 -77 -6z"/>
<path fill="darkred" d="M938 2009 c-15 -8 -18 -24 -18 -89 l0 -80 70 0 70 0 0 80 c0 77 -1
81 -26 90 -32 13 -74 12 -96 -1z"/>
<path fill="darkred" d="M1438 2009 c-15 -8 -18 -24 -18 -89 l0 -80 70 0 70 0 0 74 c0 66 -3
77 -22 90 -25 18 -74 20 -100 5z"/>
<path fill="darkred" d="M740 1761 c0 -5 69 -11 154 -13 138 -3 158 -5 183 -24 30 -23 42 -66
23 -89 -9 -11 -7 -16 9 -24 46 -25 73 2 30 30 -47 32 24 99 105 99 54 0 79
-29 74 -88 -3 -46 -3 -47 26 -45 37 3 38 4 24 40 -10 26 -9 35 5 56 24 37 73
47 225 47 81 0 132 4 132 10 0 7 -172 10 -495 10 -291 0 -495 -4 -495 -9z"/>
<path fill="darkred" d="M733 1569 c3 -61 7 -113 9 -114 2 -2 86 10 188 26 102 16 190 29 197
29 6 0 11 -14 10 -34 -2 -65 58 -112 127 -99 40 8 79 60 74 100 -3 25 0 33 12
33 8 0 96 -13 195 -29 99 -16 181 -27 183 -26 6 5 22 131 22 178 l0 47 -154 0
c-152 0 -188 -7 -146 -30 15 -8 20 -19 18 -38 -2 -22 -14 -32 -58 -53 -88 -43
-94 -43 -130 -9 -28 27 -31 34 -28 77 3 46 2 48 -26 51 -25 3 -28 1 -21 -15 4
-10 10 -33 13 -50 3 -27 -1 -38 -28 -63 -36 -34 -42 -34 -130 9 -62 29 -75 58
-41 88 12 9 21 21 21 25 0 5 -70 8 -156 8 l-157 0 6 -111z"/>
<path fill="darkred" d="M890 1408 c-69 -11 -126 -21 -128 -23 -3 -3 19 -85 22 -85 4 0 272
122 275 126 8 7 -43 2 -169 -18z"/>
<path fill="darkred" d="M1435 1416 c61 -31 258 -116 261 -113 2 1 7 21 12 44 l9 41 -106 16
c-58 9 -128 19 -156 22 -50 5 -50 5 -20 -10z"/>
<path fill="darkred" d="M1035 1339 l-80 -38 62 -1 c56 0 63 2 81 28 44 64 45 64 -63 11z"/>
<path fill="darkred" d="M1368 1340 c27 -39 28 -39 92 -39 l65 -1 -89 40 c-48 22 -90 40 -92
40 -2 0 9 -18 24 -40z"/>
<path fill="darkred" d="M1176 1325 c-16 -24 -16 -25 4 -25 15 0 20 7 20 25 0 14 -2 25 -4 25
-2 0 -11 -11 -20 -25z"/>
<path fill="darkred" d="M1270 1326 c0 -19 5 -26 20 -26 17 0 19 3 10 19 -16 32 -30 34 -30 7z"/>
<path fill="darkred" d="M823 1165 l21 -65 128 0 128 0 0 65 0 65 -149 0 -149 0 21 -65z"/>
<path fill="darkred" d="M1160 1130 l0 -100 -140 0 c-106 0 -140 -3 -140 -12 0 -7 13 -38 28
-68 l27 -55 113 -3 112 -3 0 -207 0 -208 31 -42 c17 -23 37 -42 44 -42 7 0 27
18 44 39 l31 39 0 211 0 211 116 0 115 0 30 65 c16 35 29 67 29 70 0 3 -65 5
-145 5 l-145 0 0 100 0 100 -75 0 -75 0 0 -100z"/>
<path fill="darkred" d="M1380 1165 l0 -66 127 3 126 3 18 50 c28 80 36 75 -126 75 l-145 0 0
-65z"/>
<path fill="darkred" d="M970 819 c0 -14 106 -218 121 -234 6 -6 9 36 7 115 l-3 125 -62 3
c-44 2 -63 -1 -63 -9z"/>
<path fill="darkred" d="M1380 710 c0 -66 2 -120 4 -120 5 0 110 193 121 223 6 15 0 17 -59
17 l-66 0 0 -120z"/>
<path fill="darkred" d="M1950 1372 c-28 -9 -38 -43 -21 -70 7 -11 14 -11 42 3 44 23 42 20
30 43 -12 23 -30 31 -51 24z"/>
<path fill="darkred" d="M342 1003 c2 -14 15 -35 30 -46 23 -17 31 -19 53 -9 23 11 54 57 44
66 -2 2 -32 6 -67 10 l-63 6 3 -27z"/>
<path fill="darkred" d="M694 388 c-30 -33 -35 -55 -18 -73 21 -20 27 -19 64 11 23 20 30 34
28 53 -4 36 -46 41 -74 9z"/>
</g>
</svg>
